<svg   id="chart"   width="1200"   height="400"   viewBox="0 0 1200 400"   xmlns="http://www.w3.org/2000/svg" >     		     <path d="  M0,400  h48  v--3.106143660801365  q0,-4 -4,-4  h-40  q-4,0 -4,4  Z" fill="#444cf7" /> <path d="  M60,400  h48  v-9.722119033270815  q0,-4 -4,-4  h-40  q-4,0 -4,4  Z" fill="#444cf7" /> <path d="  M120,400  h48  v-31.066692436094286  q0,-4 -4,-4  h-40  q-4,0 -4,4  Z" fill="#444cf7" /> <path d="  M180,400  h48  v-51.28519546537245  q0,-4 -4,-4  h-40  q-4,0 -4,4  Z" fill="#444cf7" /> <path d="  M240,400  h48  v-77.69235743513275  q0,-4 -4,-4  h-40  q-4,0 -4,4  Z" fill="#444cf7" /> <path d="  M300,400  h48  v-66.20103031103872  q0,-4 -4,-4  h-40  q-4,0 -4,4  Z" fill="#444cf7" /> <path d="  M360,400  h48  v-113.26006555016738  q0,-4 -4,-4  h-40  q-4,0 -4,4  Z" fill="#444cf7" /> <path d="  M420,400  h48  v-100.34540727872667  q0,-4 -4,-4  h-40  q-4,0 -4,4  Z" fill="#444cf7" /> <path d="  M480,400  h48  v-152.08881270221264  q0,-4 -4,-4  h-40  q-4,0 -4,4  Z" fill="#444cf7" /> <path d="  M540,400  h48  v-161.109076387149  q0,-4 -4,-4  h-40  q-4,0 -4,4  Z" fill="#444cf7" /> <path d="  M600,400  h48  v-179.44928198240655  q0,-4 -4,-4  h-40  q-4,0 -4,4  Z" fill="#444cf7" /> <path d="  M660,400  h48  v-181.36484462153533  q0,-4 -4,-4  h-40  q-4,0 -4,4  Z" fill="#444cf7" /> <path d="  M720,400  h48  v-189.6831087759541  q0,-4 -4,-4  h-40  q-4,0 -4,4  Z" fill="#444cf7" /> <path d="  M780,400  h48  v-167.27621302126673  q0,-4 -4,-4  h-40  q-4,0 -4,4  Z" fill="#444cf7" /> <path d="  M840,400  h48  v-197.46376001200565  q0,-4 -4,-4  h-40  q-4,0 -4,4  Z" fill="#444cf7" /> <path d="  M900,400  h48  v-281.0444105860702  q0,-4 -4,-4  h-40  q-4,0 -4,4  Z" fill="#444cf7" /> <path d="  M960,400  h48  v-242.0061389885897  q0,-4 -4,-4  h-40  q-4,0 -4,4  Z" fill="#444cf7" /> <path d="  M1020,400  h48  v-245.86559925639818  q0,-4 -4,-4  h-40  q-4,0 -4,4  Z" fill="#444cf7" /> <path d="  M1080,400  h48  v-252.40759062161658  q0,-4 -4,-4  h-40  q-4,0 -4,4  Z" fill="#444cf7" /> <path d="  M1140,400  h48  v-321.4920881971324  q0,-4 -4,-4  h-40  q-4,0 -4,4  Z" fill="#424cf7" /> </svg>